<?xml version="1.0" encoding="iso-8859-1"?>
<!-- Generator: Adobe Illustrator 23.0.6, SVG Export Plug-In . SVG Version: 6.00 Build 0)  -->
<svg version="1.1" id="Layer_1" xmlns="http://www.w3.org/2000/svg" xmlns:xlink="http://www.w3.org/1999/xlink" x="0px" y="0px"
	 width="35.308px" height="41.845px" viewBox="0 0 35.308 41.845" enable-background="new 0 0 35.308 41.845" xml:space="preserve">
<g>
	<path fill="#231039" d="M17.654,38.577C7.92,38.577,0,30.657,0,20.922C0,11.188,7.92,3.269,17.654,3.269
		s17.653,7.919,17.653,17.653C35.308,30.657,27.389,38.577,17.654,38.577z M17.654,8.931c-6.612,0-11.992,5.379-11.992,11.991
		c0,6.613,5.38,11.993,11.992,11.993s11.991-5.38,11.991-11.993C29.646,14.31,24.267,8.931,17.654,8.931z"/>
	<path fill="#F36D21" d="M19.509,20.922c0,1.026-0.831,1.856-1.856,1.857c-1.025-0.001-1.855-0.831-1.855-1.856
		s0.83-1.856,1.855-1.856C18.678,19.067,19.509,19.897,19.509,20.922 M30.115,0.854L28.62,0L9.723,16.39L5.192,40.991l1.494,0.854
		l18.898-16.389L30.115,0.854z"/>
</g>
<g>
</g>
<g>
</g>
<g>
</g>
<g>
</g>
<g>
</g>
<g>
</g>
</svg>
