<?xml version="1.0" encoding="iso-8859-1"?>
<!-- Generator: Adobe Illustrator 23.0.6, SVG Export Plug-In . SVG Version: 6.00 Build 0)  -->
<svg version="1.1" id="Layer_1" xmlns="http://www.w3.org/2000/svg" xmlns:xlink="http://www.w3.org/1999/xlink" x="0px" y="0px"
	 width="283.357px" height="54.254px" viewBox="0 0 283.357 54.254" enable-background="new 0 0 283.357 54.254"
	 xml:space="preserve">
<g>
	<path fill="#231039" d="M283.357,16.433c-0.345-0.069-1.243-0.207-2.141-0.207c-3.383,0-7.526,1.241-9.942,6.344v-5.792h-6.344
		v33.203h6.482V33.345c0-7.323,3.659-10.223,9.114-10.223c0.898,0,1.864,0.069,2.831,0.207V16.433z M250.844,38.591
		c-1.242,3.732-3.936,6.703-9.324,6.703c-5.596,0-9.878-4.146-10.017-10.089h24.995c0.069-0.414,0.138-1.241,0.138-2.068
		c0-10.359-5.723-17.394-15.945-17.394c-8.359,0-15.876,7.104-15.876,17.532c0,11.259,7.794,17.742,16.705,17.742
		c7.737,0,13.048-4.619,14.909-10.491L250.844,38.591z M231.711,29.966c0.276-4.285,3.592-8.501,9.049-8.501
		c5.872,0,8.98,3.732,9.118,8.501H231.711z M195.185,30.786c0-5.04,2.625-9.114,7.738-9.114c5.803,0,7.737,3.728,7.737,8.355v19.954
		h6.482V28.922c0-7.388-3.93-13.11-11.87-13.11c-3.869,0-7.807,1.585-10.225,5.722v-4.756h-6.344v33.203h6.482V30.786z
		 M144.437,16.778h-8.977l-14.361,14.703V0h-6.413v49.981h6.413V39.972l4.626-4.625l10.84,14.634h8.148l-14.431-19.19
		L144.437,16.778z M92.03,21.741c5.662,0,8.079,3.799,8.907,7.045l5.869-2.486c-1.381-5.042-5.938-10.557-14.776-10.557
		c-9.459,0-16.7,7.241-16.7,17.602c0,10.085,7.103,17.672,16.769,17.672c8.631,0,13.395-5.585,14.983-10.35l-5.73-2.487
		c-0.76,2.625-3.039,6.838-9.253,6.838c-5.385,0-10.15-4.075-10.15-11.673C81.949,25.609,86.783,21.741,92.03,21.741 M64.005,38.591
		c-1.241,3.732-3.936,6.703-9.324,6.703c-5.595,0-9.878-4.146-10.016-10.089H69.66c0.069-0.414,0.138-1.241,0.138-2.068
		c0-10.359-5.724-17.394-15.946-17.394c-8.358,0-15.876,7.104-15.876,17.532c0,11.259,7.794,17.742,16.705,17.742
		c7.737,0,13.048-4.619,14.91-10.491L64.005,38.591z M44.872,29.966c0.276-4.285,3.592-8.501,9.049-8.501
		c5.872,0,8.981,3.732,9.119,8.501H44.872z M6.827,23.89V7.103h10.362c5.526,0,9.256,3.316,9.256,8.497
		c0,5.043-3.73,8.29-9.256,8.29H6.827z M25.34,49.981h7.863L21.541,29.475C28.928,28.096,33.41,22.647,33.41,15.6
		c0-8.083-5.724-14.564-14.978-14.564H0v48.945h6.827V29.957h7.323L25.34,49.981z"/>
	<path fill="#231039" d="M163.432,50.986c-9.734,0-17.654-7.92-17.654-17.655c0-9.733,7.92-17.652,17.654-17.652
		s17.654,7.919,17.654,17.652C181.085,43.066,173.166,50.986,163.432,50.986z M163.432,21.34c-6.612,0-11.992,5.379-11.992,11.99
		c0,6.613,5.38,11.993,11.992,11.993s11.992-5.38,11.992-11.993C175.423,26.719,170.044,21.34,163.432,21.34z"/>
	<path fill="#F36D21" d="M165.287,33.331c0,1.026-0.831,1.856-1.856,1.857c-1.025-0.001-1.855-0.831-1.855-1.856
		s0.83-1.856,1.855-1.856C164.456,31.476,165.287,32.306,165.287,33.331 M175.893,13.263l-1.495-0.854l-18.897,16.39L150.97,53.4
		l1.494,0.854l18.898-16.389L175.893,13.263z"/>
</g>
<g>
</g>
<g>
</g>
<g>
</g>
<g>
</g>
<g>
</g>
<g>
</g>
</svg>
